# AST/ASF file generated using VICON BodyLanguage
# -----------------------------------------------
:version 1.10
:name VICON
:units
  mass 1.0
  length 0.45
  angle deg
:documentation
   .ast/.asf automatically generated from VICON data using
   VICON BodyBuilder and BodyLanguage model FoxedUp or BRILLIANT.MOD
:root
   order TX TY TZ RX RY RZ
   axis XYZ
   position 0 0 0  
   orientation 0 0 0 
:bonedata
  begin
     id 1 
     name lhipjoint
     direction 0.650112 -0.723553 0.232005 
     length 2.45805 
     axis 0 0 0  XYZ
  end
  begin
     id 2 
     name lfemur
     direction 0.34202 -0.939693 0  
     length 7.00073  
     axis 0 0 20  XYZ
    dof rx ry rz
    limits (-160.0 20.0)
           (-70.0 70.0)
           (-60.0 70.0)
  end
  begin
     id 3 
     name ltibia
     direction 0.34202 -0.939693 0   
     length 7.8748   
     axis 0 0 20   XYZ
    dof rx
    limits (-10.0 170.0)
  end
  begin
     id 4 
     name lfoot
     direction 0.0542825 -0.14914 0.987325   
     length 1.75978   
     axis -90 7.62852e-016 20   XYZ
    dof rx rz
    limits (-45.0 90.0)
           (-70.0 20.0)
  end
  begin
     id 5 
     name ltoes
     direction 1.53509e-011 -4.21906e-011 1   
     length 0.893912   
     axis -90 7.62852e-016 20   XYZ
    dof rx
    limits (-90.0 20.0)
  end
  begin
     id 6 
     name rhipjoint
     direction -0.637897 -0.733345 0.235145   
     length 2.42522  
     axis 0 0 0  XYZ 
  end
  begin
     id 7 
     name rfemur
     direction -0.34202 -0.939693 0   
     length 7.02549   
     axis 0 0 -20   XYZ
    dof rx ry rz
    limits (-160.0 20.0)
           (-70.0 70.0)
           (-70.0 60.0)
  end
  begin
     id 8 
     name rtibia
     direction -0.34202 -0.939693 0   
     length 7.71512   
     axis 0 0 -20   XYZ
    dof rx
    limits (-10.0 170.0)
 end
 begin
     id 9 
     name rfoot
     direction -0.0822618 -0.226012 0.970645   
     length 1.90014  
     axis -90 -7.62852e-016 -20   XYZ
    dof rx rz
    limits (-45.0 90.0)
           (-20.0 70.0)
  end
  begin
     id 10 
     name rtoes
     direction -1.53542e-011 -4.21872e-011 1   
     length 0.957341   
     axis -90 -7.62852e-016 -20   XYZ
    dof rx
    limits (-90.0 20.0)
  end
  begin
     id 11 
     name lowerback
     direction -0.0022947 0.999774 -0.0211557   
     length 1.89909   
     axis 0 0 0   XYZ
    dof rx ry rz
    limits (-20.0 45.0)
           (-30.0 30.0)
           (-30.0 30.0)
  end
  begin
     id 12 
     name upperback
     direction 0.0107737 0.998635 0.0511027   
     length 1.8853   
     axis 0 0 0   XYZ
    dof rx ry rz
    limits (-20.0 45.0)
           (-30.0 30.0)
           (-30.0 30.0)
  end
  begin
     id 13 
     name thorax
     direction 0.011824 0.998136 0.0598754   
     length 1.88911   
     axis 0 0 0   XYZ
    dof rx ry rz
    limits (-20.0 45.0)
           (-30.0 30.0)
           (-30.0 30.0)
  end
  begin
     id 14 
     name lowerneck
     direction -0.0685355 0.990319 0.120714   
     length 1.91222   
     axis 0 0 0   XYZ
    dof rx ry rz
    limits (-20.0 45.0)
           (-30.0 30.0)
           (-30.0 30.0)
  end
  begin
     id 15 
     name upperneck
     direction 0.0886204 0.955665 -0.280805   
     length 1.92526   
     axis 0 0 0   XYZ
    dof rx ry rz
    limits (-20.0 45.0)
           (-30.0 30.0)
           (-30.0 30.0)
  end
  begin
     id 16
     name head
     direction 0.0233423 0.993502 -0.111393  
     length 1.96056  
     axis 0 0 0   XYZ
    dof rx ry rz
    limits (-20.0 45.0)
           (-30.0 30.0)
           (-30.0 30.0)
  end
  begin
     id 17 
     name lclavicle
     direction 0.941873 0.32922 0.0670041  
     length 3.31705  
     axis 0 0 0   XYZ
    dof ry rz
    limits (-20.0 10.0)
           (0.0 20.0)
  end
  begin
     id 18 
     name lhumerus
     direction 1 -4.4898e-011 3.38707e-028   
     length 5.29277   
     axis 180 -30 -90   XYZ
    dof rx ry rz
    limits (-60.0 90.0)
           (-90.0 90.0)
           (-90.0 90.0)
  end
  begin
     id 19
     name lradius
     direction 1 -4.48952e-011 1.63213e-028   
     length 2.85226   
     axis 180 -30 -90   XYZ
    dof rx
    limits (-10.0 170.0)
  end
  begin
     id 20
     name lwrist
     direction 1 -4.49001e-011 1.27856e-027   
     length 1.42613   
     axis -1.61767e-015 90 90   XYZ
    dof ry
    limits (-180.0 0.0)
 end
  begin
     id 21 
     name lhand
     direction 1 -4.48976e-011 2.55931e-027   
     length 0.602097   
     axis -1.63363e-015 90 90   XYZ
    dof rx rz
    limits (-90.0 90.0)
           (-45.0 45.0)
  end
  begin
     id 22 
     name lfingers
     direction 1 -4.48986e-011 5.11684e-027   
     length 0.485426   
     axis -3.26723e-015 90 90   XYZ
    dof rx
    limits (0.0 90.0)
  end
  begin
     id 23
     name lthumb
     direction 0.707107 -6.34915e-011 0.707107   
     length 0.696978   
     axis -90 45 -2.25915e-014   XYZ
    dof rx rz
    limits (-45.0 45.0)
           (-45.0 45.0)
  end
  begin
     id 24 
     name rclavicle
     direction -0.939974 0.327078 0.0973096   
     length 3.10337  
     axis 0 0 0   XYZ 
    dof ry rz
    limits (-10.0 20.0)
           (-20.0 0.0)
  end
  begin
     id 25 
     name rhumerus
     direction -1 -4.48975e-011 1.83745e-027  
     length 5.13304   
     axis 180 30 90   XYZ
    dof rx ry rz
    limits (-90.0 60.0)
           (-90.0 90.0)
           (-90.0 90.0)
  end
  begin
     id 26 
     name rradius
     direction -1 -4.48977e-011 7.1775e-029   
     length 2.74305   
     axis 180 30 90   XYZ
    dof rx
    limits (-10.0 170.0)
  end
  begin
     id 27 
     name rwrist
     direction -1 -4.48977e-011 1.27963e-027   
     length 1.37152   
     axis -1.61767e-015 -90 -90   XYZ
    dof ry
    limits (-180.0 0.0)
  end
  begin
     id 28
     name rhand
     direction -1 -4.4888e-011 2.56782e-027   
     length 0.767976   
     axis -1.63363e-015 -90 -90   XYZ
    dof rx rz
    limits (-90.0 90.0)
           (-45.0 45.0)
  end
  begin
     id 29
     name rfingers
     direction -1 -4.48947e-011 5.12384e-027   
     length 0.619162   
     axis -3.26723e-015 -90 -90   XYZ
    dof rx
    limits (0.0 90.0)
  end
  begin
     id 30
     name rthumb
     direction -0.707107 -6.34857e-011 0.707107   
     length 0.888997   
     axis -90 -45 2.25915e-014   XYZ
    dof rx rz
    limits (-45.0 45.0)
           (-45.0 45.0)
  end
:hierarchy
  begin
    root lhipjoint rhipjoint lowerback
    lhipjoint lfemur
    lfemur ltibia
    ltibia lfoot
    lfoot ltoes
    rhipjoint rfemur
    rfemur rtibia
    rtibia rfoot
    rfoot rtoes
    lowerback upperback
    upperback thorax
    thorax lowerneck lclavicle rclavicle
    lowerneck upperneck
    upperneck head
    lclavicle lhumerus
    lhumerus lradius
    lradius lwrist
    lwrist lhand lthumb
    lhand lfingers
    rclavicle rhumerus
    rhumerus rradius
    rradius rwrist
    rwrist rhand rthumb
    rhand rfingers
  end

#!OML:ASF F:\VICON\USERDATA\INSTALL\rory3\rory3.ASF
:FULLY-SPECIFIED
:DEGREES
1542
root 0.857055 17.2505 -1.76432 17.2874 9.12289 5.93823
lowerback 15.284 -0.338494 6.67858
upperback 1.29936 1.61615 11.0224
thorax -7.4028 0.794601 7.90212
lowerneck 2.09377 -7.53662 -11.9382
upperneck 3.56961 -11.1704 24.9278
head 2.8319 -5.43831 9.48708
rclavicle 1.59028e-014 2.22639e-014
rhumerus 74.7293 -26.752 -63.3575
rradius 132.483
rwrist 22.6039
rhand 10.5147 1.7887
rfingers 7.12502
rthumb 35.6143 -24.6216
lclavicle 1.59028e-014 2.22639e-014
lhumerus 83.2307 30.6372 39.5005
lradius 125.468
lwrist -6.58568
lhand 2.16533 40.5881
lfingers 7.12502
lthumb 27.6627 68.574
rfemur -29.6816 4.36958 6.61206
rtibia 29.2083
rfoot -12.7419 -16.4444
rtoes -28.3269
lfemur -30.6044 -16.9681 -21.3704
ltibia 21.7424
lfoot -8.02748 2.08161
ltoes -17.5095
1543
root 0.847794 17.2552 -1.75968 17.3435 9.00773 5.99622
lowerback 15.279 -0.333077 6.68983
upperback 1.24054 1.62517 10.9497
thorax -7.46219 0.796573 7.8126
lowerneck 2.0946 -7.63799 -11.8323
upperneck 3.29341 -11.2465 24.6998
head 2.74827 -5.49062 9.38158
rclavicle -3.49861e-014 -4.77083e-014
rhumerus 75.055 -26.8473 -63.2658
rradius 132.56
rwrist 22.5713
rhand 10.1643 1.59587
rfingers 7.12502
rthumb 35.2822 -24.8938
lclavicle -3.49861e-014 -4.77083e-014
lhumerus 83.2737 30.6607 39.8007
lradius 125.682
lwrist -6.59563
lhand 1.82569 40.5286
lfingers 7.12502
lthumb 27.3379 68.5662
rfemur -29.6623 4.48009 6.53916
rtibia 29.0478
rfoot -12.873 -16.4406
rtoes -27.9026
lfemur -30.5321 -17.0683 -21.3451
ltibia 21.5163
lfoot -7.81025 2.29148
ltoes -18.7524
1544
root 0.838133 17.2584 -1.75375 17.363 8.95152 5.91674
lowerback 15.2628 -0.371196 6.82714
upperback 1.17349 1.60226 10.9259
thorax -7.52043 0.779932 7.71408
lowerneck 2.06358 -7.70731 -11.6956
upperneck 3.08387 -11.2823 24.3412
head 2.67057 -5.51875 9.22792
rclavicle 5.08889e-014 3.18055e-014
rhumerus 75.404 -26.919 -63.2285
rradius 132.609
rwrist 22.5599
rhand 10.1066 1.44029
rfingers 7.12502
rthumb 35.2275 -25.0623
lclavicle 5.08889e-014 3.18055e-014
lhumerus 83.2348 30.7228 40.0732
lradius 125.932
lwrist -6.61961
lhand 1.79085 40.6099
lfingers 7.12502
lthumb 27.3046 68.6527
rfemur -29.6431 4.57033 6.64208
rtibia 28.9107
rfoot -12.9977 -16.4546
rtoes -27.4777
lfemur -30.4355 -17.1855 -21.1561
ltibia 21.267
lfoot -7.61155 2.51182
ltoes -20.3002
1545
root 0.826869 17.262 -1.74657 17.3837 8.93848 5.83894
lowerback 15.2215 -0.396298 6.96155
upperback 1.13033 1.59074 10.916
thorax -7.53997 0.769269 7.62866
lowerneck 1.95949 -7.82035 -11.6517
upperneck 2.86939 -11.3804 24.0528
head 2.62642 -5.57362 9.10798
rclavicle -3.33958e-014 -2.22639e-014
rhumerus 75.8293 -27.1157 -63.1736
rradius 132.607
rwrist 22.5322
rhand 10.2902 1.4054
rfingers 7.12502
rthumb 35.4015 -25.0559
lclavicle -3.33958e-014 -2.22639e-014
lhumerus 83.2955 30.7842 40.446
lradius 126.165
lwrist -6.76924
lhand 2.1003 40.6734
lfingers 7.12502
lthumb 27.6005 68.6692
rfemur -29.6365 4.65435 6.76398
rtibia 28.7835
rfoot -12.703 -16.5612
rtoes -28.2152
lfemur -30.3303 -17.3054 -20.9695
ltibia 21.0218
lfoot -7.4708 2.65787
ltoes -20.7348
1546
root 0.816058 17.2741 -1.74008 17.3952 8.86878 5.83905
lowerback 15.1644 -0.418368 6.96616
upperback 1.11636 1.55595 10.9214
thorax -7.52038 0.752242 7.63881
lowerneck 2.05132 -7.87697 -11.7504
upperneck 2.45644 -11.389 23.9223
head 2.49307 -5.60653 9.08495
rclavicle -6.36111e-015 3.18055e-015
rhumerus 76.3048 -27.2407 -63.1065
rradius 132.613
rwrist 22.3757
rhand 10.3934 1.54027
rfingers 7.12502
rthumb 35.4994 -24.8977
lclavicle -6.36111e-015 3.18055e-015
lhumerus 83.2734 30.8969 40.8236
lradius 126.396
lwrist -7.03116
lhand 2.81456 40.5719
lfingers 7.12502
lthumb 28.2833 68.4566
rfemur -29.5575 4.68661 6.80296
rtibia 28.645
rfoot -12.5604 -16.4474
rtoes -28.5451
lfemur -30.211 -17.4021 -20.8871
ltibia 20.8032
lfoot -7.42333 2.79633
ltoes -19.9331
1547
root 0.80313 17.2828 -1.73498 17.4931 8.6548 5.89886
lowerback 15.0663 -0.389322 6.78437
upperback 1.09193 1.54981 10.9028
thorax -7.49497 0.754804 7.72139
lowerneck 2.25721 -7.87774 -11.7698
upperneck 1.86185 -11.2982 23.855
head 2.26899 -5.60424 9.08452
rclavicle 0 2.22639e-014
rhumerus 76.7575 -27.2966 -63.1009
rradius 132.603
rwrist 22.2319
rhand 10.541 1.79234
rfingers 7.12502
rthumb 35.6392 -24.612
lclavicle 0 2.22639e-014
lhumerus 83.2032 31.0189 41.1154
lradius 126.628
lwrist -7.2841
lhand 3.13946 40.6255
lfingers 7.12502
lthumb 28.5938 68.4584
rfemur -29.5939 4.72487 6.73373
rtibia 28.5215
rfoot -12.9116 -16.1681
rtoes -27.1982
lfemur -30.1729 -17.4291 -20.8766
ltibia 20.5886
lfoot -7.37944 3.06775
ltoes -20.4993
1548
root 0.78557 17.2878 -1.72954 17.5714 8.38046 5.7673
lowerback 14.999 -0.325282 6.72702
upperback 1.08817 1.61299 10.8926
thorax -7.46756 0.786471 7.7267
lowerneck 2.20091 -7.95222 -11.7336
upperneck 1.51266 -11.3341 23.7366
head 2.17792 -5.63609 9.03421
rclavicle -1.43125e-014 -4.45278e-014
rhumerus 77.2254 -27.3951 -63.0714
rradius 132.473
rwrist 22.1657
rhand 10.7047 1.89318
rfingers 7.12502
rthumb 35.7945 -24.4736
lclavicle -1.43125e-014 -4.45278e-014
lhumerus 83.2379 31.1634 41.3803
lradius 126.868
lwrist -7.53319
lhand 3.26758 40.7908
lfingers 7.12502
lthumb 28.7162 68.603
rfemur -29.7274 4.99871 6.83395
rtibia 28.426
rfoot -13.0427 -16.1266
rtoes -26.37
lfemur -30.1229 -17.2871 -20.675
ltibia 20.3368
lfoot -7.31395 3.24327
ltoes -20.447
1549
root 0.769413 17.2916 -1.72229 17.607 8.25598 5.65281
lowerback 14.9264 -0.330189 6.70999
upperback 1.07829 1.59813 10.941
thorax -7.43863 0.780802 7.79377
lowerneck 2.06613 -8.01347 -11.8931
upperneck 1.3988 -11.3933 23.6083
head 2.18237 -5.66523 9.00782
rclavicle 2.38542e-014 -5.725e-014
rhumerus 77.724 -27.5006 -62.8631
rradius 132.106
rwrist 22.0945
rhand 10.6244 2.08063
rfingers 7.12502
rthumb 35.7183 -24.3046
lclavicle 2.38542e-014 -5.725e-014
lhumerus 83.2462 31.3428 41.7297
lradius 127.066
lwrist -7.87779
lhand 3.58697 40.7436
lfingers 7.12502
lthumb 29.0213 68.5037
rfemur -29.7672 5.23834 6.95119
rtibia 28.3257
rfoot -12.973 -16.2002
rtoes -26.2486
lfemur -30.0559 -17.2128 -20.4841
ltibia 20.1346
lfoot -7.23991 3.30882
ltoes -20.063
1550
root 0.75677 17.2962 -1.71659 17.6232 8.16463 5.7929
lowerback 15.0016 -0.359022 6.52226
upperback 0.976869 1.55036 10.9156
thorax -7.5919 0.764039 7.89133
lowerneck 2.26117 -8.04992 -11.9465
upperneck 1.22947 -11.4186 23.3109
head 2.08882 -5.6988 8.92532
rclavicle 2.38542e-014 7.31528e-014
rhumerus 78.1051 -27.6823 -62.6342
rradius 131.764
rwrist 21.8328
rhand 10.4482 2.22822
rfingers 7.12502
rthumb 35.5514 -24.1973
lclavicle 2.38542e-014 7.31528e-014
lhumerus 83.1607 31.4583 42.0278
lradius 127.208
lwrist -8.12722
lhand 3.6922 40.6427
lfingers 7.12502
lthumb 29.1218 68.3855
rfemur -29.718 5.28215 6.83155
rtibia 28.2176
rfoot -12.9301 -16.1747
rtoes -26.2561
lfemur -29.9599 -17.2174 -20.5944
ltibia 19.9909
lfoot -7.21463 3.33763
ltoes -19.7622
1551
root 0.744276 17.3005 -1.71004 17.6409 8.05284 5.85624
lowerback 15.0285 -0.364101 6.44427
upperback 0.914358 1.53677 10.8581
thorax -7.67414 0.758856 7.87741
lowerneck 2.74828 -8.05106 -11.8768
upperneck 0.818498 -11.3708 23.0281
head 1.85611 -5.72199 8.84991
rclavicle -6.36111e-015 -3.49861e-014
rhumerus 78.6608 -28.0637 -62.6422
rradius 131.496
rwrist 21.272
rhand 10.354 2.23114
rfingers 7.12502
rthumb 35.462 -24.2158
lclavicle -6.36111e-015 -3.49861e-014
lhumerus 83.1288 31.5531 42.2437
lradius 127.38
lwrist -8.32146
lhand 3.61618 40.7145
lfingers 7.12502
lthumb 29.0492 68.4698
rfemur -29.6901 5.38574 6.77897
rtibia 28.1129
rfoot -12.8468 -16.2126
rtoes -26.4315
lfemur -29.863 -17.2807 -20.5956
ltibia 19.8437
lfoot -7.19567 3.50324
ltoes -19.8478
1552
root 0.730517 17.3047 -1.70218 17.6655 7.97688 5.8144
lowerback 14.9582 -0.371886 6.4886
upperback 0.905842 1.52064 10.8148
thorax -7.63946 0.74789 7.80334
lowerneck 1.90455 -8.24154 -11.8383
upperneck 1.00177 -11.6043 22.7827
head 2.08014 -5.78184 8.69908
rclavicle 2.54444e-014 -6.67916e-014
rhumerus 79.2094 -28.4047 -62.672
rradius 131.367
rwrist 20.849
rhand 10.4259 2.26217
rfingers 7.12502
rthumb 35.5302 -24.1684
lclavicle 2.54444e-014 -6.67916e-014
lhumerus 83.1752 31.6937 42.4933
lradius 127.552
lwrist -8.5655
lhand 3.66996 40.8469
lfingers 7.12502
lthumb 29.1006 68.5933
rfemur -29.6699 5.46527 6.85678
rtibia 27.9947
rfoot -12.7767 -16.1834
rtoes -26.5228
lfemur -29.8096 -17.326 -20.4721
ltibia 19.7177
lfoot -7.15022 3.6906
ltoes -20.484
1553
root 0.716521 17.3109 -1.69304 17.6097 7.94951 5.69305
lowerback 14.9615 -0.411144 6.64482
upperback 0.878089 1.49691 10.7945
thorax -7.66538 0.729947 7.69666
lowerneck 1.55978 -8.32856 -11.9631
upperneck 1.0137 -11.7063 22.6826
head 2.16367 -5.81384 8.66147
rclavicle 9.54166e-015 6.36111e-014
rhumerus 79.4782 -28.4424 -62.5237
rradius 131.29
rwrist 20.8539
rhand 10.6859 2.42689
rfingers 7.12502
rthumb 35.7766 -23.9442
lclavicle 9.54166e-015 6.36111e-014
lhumerus 83.1197 31.8172 42.7184
lradius 127.72
lwrist -8.79368
lhand 3.4583 40.8549
lfingers 7.12502
lthumb 28.8984 68.6361
rfemur -29.5165 5.60432 7.03135
rtibia 27.7978
rfoot -12.7022 -16.2004
rtoes -26.2669
lfemur -29.7199 -17.3665 -20.2778
ltibia 19.6953
lfoot -7.14742 3.83257
ltoes -21.0051
1554
root 0.702544 17.3124 -1.68465 17.5953 7.89351 5.59433
lowerback 14.9399 -0.439018 6.75089
upperback 0.821371 1.48219 10.7962
thorax -7.71203 0.718865 7.64323
lowerneck 1.41562 -8.38302 -12.1625
upperneck 1.02124 -11.7735 22.527
head 2.20522 -5.84114 8.63083
rclavicle 3.02153e-014 3.49861e-014
rhumerus 79.6535 -28.2897 -62.2337
rradius 131.228
rwrist 20.9721
rhand 10.9839 2.55239
rfingers 7.12502
rthumb 36.059 -23.7496
lclavicle 3.02153e-014 3.49861e-014
lhumerus 83.054 31.8888 42.9719
lradius 127.879
lwrist -9.0573
lhand 3.33268 40.8547
lfingers 7.12502
lthumb 28.7784 68.6563
rfemur -29.4265 5.75135 7.15545
rtibia 27.584
rfoot -12.5953 -16.2394
rtoes -26.4516
lfemur -29.6893 -17.3807 -20.1085
ltibia 19.7116
lfoot -7.19456 3.97136
ltoes -20.9733
